<svg width="97" height="75" viewBox="0 0 97 75" fill="none" xmlns="http://www.w3.org/2000/svg">
<path d="M4.14689 74.7451C3.49101 74.7451 2.95854 74.7309 2.54949 74.7026C2.14045 74.6743 1.80192 74.6389 1.53393 74.5964C1.26593 74.561 1.04378 74.5291 0.867463 74.5008C0.698202 74.4724 0.525414 74.4583 0.349101 74.4583C0.426679 74.1396 0.483099 73.8493 0.518362 73.5873C0.553625 73.3182 0.571256 73.0704 0.571256 72.8438C0.571256 72.5251 0.543046 72.2313 0.486625 71.9622C0.430205 71.686 0.363206 71.3957 0.285628 71.0912L0.761674 71.07C0.959146 71.5161 1.25535 71.9268 1.65029 72.3021C2.04524 72.6703 2.48602 72.9925 2.97265 73.2687C3.45927 73.5377 3.96705 73.7502 4.496 73.906C5.02494 74.0547 5.52919 74.129 6.00876 74.129C6.58002 74.129 7.10544 74.0299 7.58501 73.8316C8.06458 73.6333 8.47715 73.3713 8.82273 73.0456C9.1683 72.7128 9.4363 72.3375 9.62672 71.9197C9.82419 71.4948 9.92292 71.0593 9.92292 70.6132C9.92292 70.1246 9.81008 69.7281 9.5844 69.4236C9.36578 69.112 9.06957 68.8642 8.69578 68.6801C8.32905 68.496 7.9059 68.3579 7.42633 68.2658C6.95381 68.1738 6.46718 68.0994 5.96645 68.0428C5.59267 68.0003 5.18362 67.9507 4.73931 67.8941C4.30205 67.8374 3.86127 67.7524 3.41696 67.6391C2.97265 67.5258 2.54597 67.3771 2.13692 67.193C1.72787 67.0018 1.36467 66.7611 1.0473 66.4707C0.729938 66.1804 0.476047 65.8264 0.285628 65.4086C0.0952093 64.9908 0 64.4916 0 63.9109C0 63.224 0.133998 62.6257 0.401995 62.1158C0.669991 61.606 1.02262 61.1705 1.45988 60.8094C1.90419 60.4412 2.41197 60.1402 2.98322 59.9065C3.55448 59.6658 4.13984 59.4781 4.73931 59.3436C5.34583 59.202 5.94529 59.1064 6.53771 59.0568C7.13717 59.0001 7.68374 58.9718 8.17742 58.9718C8.60763 58.9718 9.00962 58.986 9.38341 59.0143C9.76424 59.0426 10.1133 59.0745 10.4307 59.1099C10.7551 59.1382 11.0513 59.1665 11.3193 59.1949C11.5944 59.2161 11.8447 59.2267 12.0704 59.2267C11.9928 59.5596 11.9364 59.857 11.9012 60.119C11.873 60.3739 11.8588 60.6217 11.8588 60.8625C11.8588 61.167 11.8835 61.4573 11.9329 61.7335C11.9823 62.0025 12.0493 62.2929 12.1339 62.6044L11.6579 62.6257C11.545 62.3637 11.4392 62.1052 11.3405 61.8503C11.2417 61.5954 11.1219 61.3582 10.9808 61.1386C10.8468 60.912 10.6775 60.7067 10.473 60.5226C10.2756 60.3314 10.0181 60.1685 9.70077 60.034C9.39046 59.8924 9.00609 59.7861 8.54768 59.7153C8.09632 59.6374 7.54622 59.5985 6.89739 59.5985C6.46013 59.5985 6.03345 59.6764 5.61735 59.8322C5.2083 59.988 4.84157 60.2039 4.51715 60.4801C4.19979 60.7492 3.94237 61.0749 3.7449 61.4573C3.54743 61.8326 3.44869 62.2433 3.44869 62.6894C3.44869 63.0789 3.51922 63.4117 3.66027 63.6879C3.80837 63.964 3.99879 64.1977 4.23152 64.3889C4.46426 64.5801 4.7252 64.7359 5.01436 64.8562C5.31056 64.9766 5.60324 65.0722 5.8924 65.143C6.1886 65.2068 6.46718 65.2528 6.72812 65.2811C6.99612 65.3094 7.21828 65.3307 7.39459 65.3448C7.72606 65.3732 8.10337 65.4157 8.52652 65.4723C8.94967 65.529 9.37988 65.6175 9.81714 65.7379C10.2544 65.8511 10.6811 66.0034 11.0972 66.1946C11.5203 66.3858 11.8941 66.6336 12.2185 66.9381C12.55 67.2426 12.8145 67.6108 13.0119 68.0428C13.2094 68.4676 13.3081 68.9739 13.3081 69.5617C13.3081 70.3335 13.1741 70.9991 12.9061 71.5586C12.6452 72.1109 12.2891 72.5818 11.8377 72.9712C11.3863 73.3536 10.8574 73.6617 10.2509 73.8953C9.6514 74.1219 9.00962 74.299 8.32553 74.4264C7.64848 74.5539 6.95028 74.6389 6.23092 74.6813C5.51861 74.7238 4.82394 74.7451 4.14689 74.7451Z" fill="white"/>
<path d="M28.6686 62.6257C28.4641 62.1796 28.1961 61.783 27.8646 61.4361C27.5402 61.0891 27.1734 60.7952 26.7644 60.5545C26.3624 60.3137 25.9357 60.1331 25.4844 60.0127C25.033 59.8853 24.5852 59.8216 24.1408 59.8216C23.6542 59.8216 23.1958 59.9101 22.7656 60.0871C22.3354 60.257 21.9334 60.4943 21.5596 60.7988C21.1929 61.0962 20.8579 61.4538 20.5546 61.8715C20.2514 62.2823 19.9834 62.7284 19.7506 63.2099C19.525 63.6843 19.3381 64.1835 19.19 64.7075C19.0419 65.2315 18.9361 65.7556 18.8726 66.2796H27.8857C27.7376 66.577 27.6248 66.8921 27.5472 67.2249C27.4696 67.5506 27.4132 67.8551 27.378 68.1384C27.3356 68.4712 27.311 68.7934 27.3039 69.1049L26.9548 69.1687C26.8631 68.7155 26.7503 68.3402 26.6163 68.0428C26.4823 67.7454 26.2813 67.5117 26.0133 67.3417C25.7453 67.1718 25.3856 67.0549 24.9343 66.9912C24.49 66.9204 23.9081 66.885 23.1888 66.885H18.8091V67.3417C18.8091 67.9153 18.8761 68.4783 19.0101 69.0306C19.1441 69.5829 19.3345 70.1105 19.5814 70.6132C19.8282 71.1089 20.1315 71.5656 20.4912 71.9834C20.8508 72.4012 21.2528 72.7659 21.6971 73.0775C22.1415 73.3819 22.6281 73.6192 23.157 73.7891C23.686 73.9591 24.2466 74.044 24.8391 74.044C25.375 74.044 25.8476 73.9945 26.2566 73.8953C26.6657 73.7891 27.0183 73.6581 27.3145 73.5023C27.6178 73.3465 27.8716 73.1766 28.0762 72.9925C28.2807 72.8013 28.45 72.6207 28.584 72.4508C28.7179 72.2808 28.8167 72.1321 28.8802 72.0047C28.9507 71.8701 29.0036 71.7816 29.0388 71.7391L28.8696 73.2368C28.7074 73.4634 28.4711 73.6829 28.1608 73.8953C27.8505 74.1007 27.4802 74.2883 27.05 74.4583C26.6269 74.6211 26.1508 74.7521 25.6219 74.8513C25.0929 74.9504 24.5217 75 23.9081 75C22.7303 75 21.616 74.8265 20.5652 74.4795C19.5214 74.1325 18.6011 73.6404 17.8041 73.0031C17.0143 72.3658 16.3831 71.5975 15.9105 70.6982C15.4451 69.7918 15.2053 68.7827 15.1912 67.671C15.2123 66.5239 15.4098 65.4936 15.7836 64.5801C16.1644 63.6595 16.6687 62.8594 17.2964 62.1796C17.9311 61.4927 18.6681 60.9262 19.5073 60.4801C20.3466 60.0269 21.2423 59.6906 22.1943 59.471C22.6951 59.3507 23.2699 59.2728 23.9187 59.2374C24.5675 59.202 25.2199 59.1843 25.8758 59.1843C26.5105 59.1843 27.1064 59.1913 27.6636 59.2055C28.2278 59.2197 28.7003 59.2267 29.0812 59.2267C29.0036 59.5596 28.9472 59.857 28.9119 60.119C28.8837 60.3739 28.8696 60.6146 28.8696 60.8412C28.8696 61.1599 28.8943 61.4573 28.9436 61.7335C28.993 62.0025 29.06 62.2929 29.1446 62.6044L28.6686 62.6257Z" fill="white"/>
<path d="M41.5642 74.4583H34.4869V74.0653C34.8607 74.0653 35.1675 74.0299 35.4073 73.9591C35.6471 73.8812 35.8375 73.7785 35.9785 73.651C36.1196 73.5165 36.2148 73.3642 36.2642 73.1943C36.3206 73.0244 36.3488 72.8438 36.3488 72.6526V68.234L32.0538 61.1068H32.0326C31.948 60.9652 31.8316 60.8094 31.6835 60.6394C31.5425 60.4624 31.3626 60.2995 31.144 60.1508C30.9254 60.0021 30.6644 59.8782 30.3612 59.7791C30.0579 59.6728 29.7053 59.6197 29.3033 59.6197V59.2267H36.6027V59.6197C36.1372 59.6197 35.8199 59.6764 35.6506 59.7897C35.4813 59.903 35.3967 60.0517 35.3967 60.2358C35.3967 60.3633 35.4249 60.5013 35.4813 60.65C35.5378 60.7988 35.6083 60.951 35.6929 61.1068L39.4484 67.0868C40.0972 66.2725 40.7073 65.3767 41.2785 64.3995C41.8498 63.4223 42.3999 62.3247 42.9288 61.1068C43.0487 60.8519 43.1087 60.6323 43.1087 60.4482C43.1087 60.2075 42.9958 60.0092 42.7701 59.8534C42.5515 59.6976 42.1707 59.6197 41.6276 59.6197V59.2267H46.314C45.8486 59.9844 45.3514 60.7633 44.8224 61.5635C44.3005 62.3637 43.7575 63.1532 43.1933 63.9322C42.6361 64.704 42.0614 65.4511 41.4689 66.1733C40.8836 66.8956 40.2947 67.5542 39.7023 68.149V72.6738C39.7023 72.8155 39.727 72.9677 39.7763 73.1306C39.8257 73.2934 39.9174 73.4457 40.0514 73.5873C40.1924 73.7218 40.3829 73.8351 40.6226 73.9272C40.8695 74.0193 41.1833 74.0653 41.5642 74.0653V74.4583ZM42.7384 55.0312L39.4061 58.1433H38.253L40.3582 55.0312H42.7384Z" fill="white"/>
<path d="M62.616 74.3308C61.9742 74.5928 61.3959 74.7699 60.8811 74.8619C60.3662 74.954 59.9113 75 59.5164 75C59.0227 75 58.529 74.869 58.0354 74.607C57.5487 74.345 57.0762 74.0122 56.6178 73.6085C56.1664 73.1978 55.7398 72.7446 55.3378 72.249C54.9358 71.7533 54.5726 71.2682 54.2481 70.7938C53.9308 70.3194 53.6593 69.8874 53.4336 69.4979C53.2149 69.1085 53.0598 68.8181 52.9681 68.627C53.8638 68.4783 54.6642 68.2092 55.3695 67.8197C55.6728 67.6498 55.969 67.4479 56.2581 67.2143C56.5473 66.9806 56.8047 66.7044 57.0304 66.3858C57.2561 66.0671 57.4359 65.7024 57.5699 65.2917C57.7109 64.881 57.7815 64.4137 57.7815 63.8897C57.7815 63.4152 57.7215 62.9868 57.6016 62.6044C57.4817 62.215 57.3231 61.8715 57.1256 61.5741C56.9281 61.2696 56.6989 61.0112 56.438 60.7988C56.177 60.5792 55.9055 60.3987 55.6234 60.257C55.3413 60.1154 55.0557 60.0127 54.7665 59.949C54.4844 59.8782 54.2199 59.8428 53.9731 59.8428C53.5993 59.8428 53.289 59.8817 53.0422 59.9596C52.8024 60.0375 52.612 60.1437 52.4709 60.2783C52.3299 60.4057 52.2311 60.558 52.1747 60.735C52.1253 60.905 52.1006 61.0855 52.1006 61.2767V72.5889C52.1006 72.7305 52.1218 72.8863 52.1641 73.0562C52.2135 73.2262 52.3016 73.3855 52.4286 73.5342C52.5626 73.6829 52.753 73.8104 52.9998 73.9166C53.2467 74.0157 53.5711 74.0653 53.9731 74.0653V74.4583H46.8853V74.0653C47.2591 74.0653 47.5659 74.0299 47.8056 73.9591C48.0454 73.8812 48.2359 73.7785 48.3769 73.651C48.518 73.5165 48.6132 73.3642 48.6625 73.1943C48.719 73.0244 48.7472 72.8438 48.7472 72.6526V61.0112C48.7472 60.8696 48.719 60.7173 48.6625 60.5545C48.6132 60.3916 48.518 60.2429 48.3769 60.1083C48.2429 59.9667 48.056 59.8499 47.8162 59.7578C47.5764 59.6658 47.2661 59.6197 46.8853 59.6197V59.2267H53.9731C54.9746 59.2267 55.9196 59.3153 56.8082 59.4923C57.6968 59.6693 58.4726 59.949 59.1356 60.3314C59.8055 60.7067 60.3345 61.1918 60.7224 61.7866C61.1173 62.3743 61.3148 63.0824 61.3148 63.9109C61.3148 64.6119 61.1702 65.2245 60.8811 65.7485C60.599 66.2725 60.2216 66.7221 59.7491 67.0974C59.2837 67.4727 58.7512 67.7843 58.1517 68.0321C57.5593 68.2729 56.9528 68.4641 56.3322 68.6057C56.572 69.0447 56.8364 69.4838 57.1256 69.9228C57.4147 70.3618 57.718 70.7832 58.0354 71.1868C58.3527 71.5904 58.6701 71.9657 58.9875 72.3127C59.3119 72.6597 59.6257 72.9642 59.929 73.2262C60.2322 73.4811 60.5143 73.6829 60.7753 73.8316C61.0433 73.9732 61.2795 74.044 61.4841 74.044C61.5828 74.044 61.7168 74.0334 61.886 74.0122C62.0624 73.9909 62.2528 73.9378 62.4573 73.8528L62.616 74.3308Z" fill="white"/>
<path d="M81.1077 73.8953C80.466 74.1573 79.8806 74.3344 79.3517 74.4264C78.8227 74.5185 78.3467 74.5645 77.9235 74.5645C77.585 74.5645 77.2923 74.5433 77.0455 74.5008C76.7987 74.4654 76.5871 74.4193 76.4108 74.3627C76.2062 74.299 76.0299 74.2281 75.8818 74.1503C75.5715 73.9732 75.3 73.7431 75.0673 73.4598C74.8345 73.1766 74.6229 72.8721 74.4325 72.5464C74.2492 72.2206 74.0834 71.8843 73.9353 71.5373C73.7872 71.1903 73.6426 70.8646 73.5016 70.5601L73.2371 69.9972C72.5248 70.2025 71.8583 70.4397 71.2377 70.7088C70.6241 70.9708 70.0776 71.2328 69.598 71.4948C69.1184 71.7497 68.7129 71.987 68.3814 72.2065C68.057 72.4189 67.8278 72.5747 67.6938 72.6738C67.4329 72.9642 67.1402 73.2226 66.8158 73.4492C66.4914 73.6758 66.1282 73.8705 65.7262 74.0334C65.3242 74.1892 64.8763 74.3096 64.3826 74.3946C63.889 74.4795 63.3459 74.522 62.7535 74.522L62.6477 74.0653C63.3318 73.952 63.9207 73.7325 64.4144 73.4067C64.9151 73.081 65.3453 72.6809 65.705 72.2065C66.0647 71.725 66.3715 71.1868 66.6254 70.592C66.8792 69.9901 67.1049 69.3563 67.3024 68.6907C67.4152 68.3083 67.5633 67.9047 67.7467 67.4798C67.9371 67.0549 68.1628 66.6442 68.4238 66.2477C68.6917 65.8441 68.995 65.4688 69.3335 65.1218C69.6791 64.7677 70.0705 64.4703 70.5078 64.2296C70.3879 64.003 70.268 63.7728 70.1481 63.5392C70.0353 63.2984 69.9259 63.0576 69.8202 62.8169C69.6721 62.5336 69.5239 62.2221 69.3758 61.8822C69.2277 61.5352 69.0514 61.2165 68.8469 60.9262C68.6494 60.6288 68.4132 60.381 68.1381 60.1827C67.8701 59.9844 67.5351 59.8853 67.1331 59.8853C66.851 59.8853 66.5725 59.9171 66.2974 59.9809C66.0294 60.0446 65.772 60.1225 65.5252 60.2146L65.3771 59.7791C65.9906 59.5737 66.6113 59.4002 67.2389 59.2586C67.8737 59.1099 68.5013 59.0355 69.122 59.0355C69.4182 59.0355 69.7108 59.0568 70 59.0993C70.2892 59.1347 70.5677 59.202 70.8357 59.3011C71.0685 59.3861 71.2941 59.5277 71.5128 59.726C71.7314 59.9171 71.9394 60.1473 72.1369 60.4164C72.3344 60.6784 72.5178 60.9616 72.687 61.2661C72.8633 61.5706 73.0255 61.8751 73.1736 62.1796C73.3288 62.4841 73.4663 62.7744 73.5862 63.0506C73.7132 63.3196 73.8225 63.5533 73.9142 63.7516C74.5348 65.0899 75.1519 66.4318 75.7654 67.7772C76.379 69.1156 77.0384 70.4362 77.7437 71.7391C77.8706 71.9728 78.0046 72.2029 78.1457 72.4295C78.2938 72.6561 78.456 72.8579 78.6323 73.035C78.8157 73.212 79.0167 73.3536 79.2353 73.4598C79.4539 73.5661 79.7008 73.6156 79.9758 73.6085C80.0746 73.6085 80.2085 73.5979 80.3778 73.5767C80.5541 73.5554 80.7445 73.5023 80.9491 73.4174L81.1077 73.8953ZM71.1002 65.4511C70.9168 65.7485 70.7476 66.0565 70.5924 66.3752C70.4443 66.6938 70.3068 67.0195 70.1798 67.3524C70.0529 67.6781 69.9365 68.0038 69.8307 68.3296C69.7249 68.6553 69.6192 68.9669 69.5134 69.2643C69.4076 69.59 69.2912 69.9086 69.1643 70.2202C69.0444 70.5247 68.9069 70.8221 68.7517 71.1124C69.2806 70.8009 69.9013 70.4751 70.6136 70.1352C71.3259 69.7953 72.0875 69.505 72.8986 69.2643L71.1002 65.4511Z" fill="white"/>
<path d="M80.7798 59.2267H86.0904L94.0985 68.9987V61.0112C94.0985 60.8696 94.0703 60.7173 94.0139 60.5545C93.9645 60.3916 93.8693 60.2429 93.7283 60.1083C93.5943 59.9667 93.4074 59.8499 93.1676 59.7578C92.9278 59.6658 92.6175 59.6197 92.2367 59.6197V59.2267H96.9231V59.6197C96.5352 59.6197 96.2213 59.6622 95.9816 59.7472C95.7418 59.8251 95.5514 59.9349 95.4103 60.0765C95.2763 60.211 95.1846 60.3668 95.1353 60.5438C95.0859 60.7209 95.0612 60.9085 95.0612 61.1068V74.4583H94.0985L83.5938 61.7335V72.5889C83.5938 72.7305 83.6149 72.8863 83.6572 73.0562C83.7066 73.2262 83.7948 73.3855 83.9217 73.5342C84.0557 73.6829 84.2426 73.8104 84.4824 73.9166C84.7292 74.0157 85.0536 74.0653 85.4556 74.0653V74.4583H80.7798V74.0653C81.1606 74.0653 81.471 74.0263 81.7107 73.9484C81.9576 73.8635 82.148 73.7537 82.282 73.6192C82.423 73.4846 82.5183 73.3288 82.5676 73.1518C82.617 72.9748 82.6417 72.7871 82.6417 72.5889V60.5757C82.4724 60.3845 82.3173 60.2287 82.1762 60.1083C82.0352 59.988 81.8906 59.8924 81.7425 59.8216C81.6014 59.7437 81.4533 59.6906 81.2982 59.6622C81.143 59.6339 80.9702 59.6197 80.7798 59.6197V59.2267Z" fill="white"/>
<path d="M37.8485 14.904C37.5845 14.904 37.329 14.8014 37.1416 14.6133C36.9542 14.4252 36.8521 14.1687 36.8521 13.9036C36.8521 13.3563 37.3034 12.9031 37.8485 12.9031H58.9773C59.2413 12.9031 59.4968 13.0057 59.6842 13.1939C59.8716 13.382 59.9737 13.63 59.9737 13.9036C59.9737 14.4508 59.5309 14.904 58.9773 14.904H37.8485Z" fill="white"/>
<path d="M37.2599 14.4939C37.0981 14.3314 37.0129 14.1262 37.0129 13.9039C37.0129 13.4422 37.3877 13.0659 37.8475 13.0659H58.9764C59.1978 13.0659 59.4108 13.1514 59.5641 13.3139C59.7173 13.4764 59.811 13.6816 59.811 13.9039C59.811 14.3656 59.4363 14.7419 58.9764 14.7419H37.8475C37.6261 14.7419 37.4132 14.6564 37.2599 14.4939Z" fill="white"/>
<path d="M37.8476 14.6047C37.4559 14.6047 37.1407 14.2883 37.1407 13.895C37.1407 13.5017 37.4559 13.1853 37.8476 13.1853H58.9765C59.3682 13.1853 59.6834 13.5017 59.6834 13.895C59.6834 14.2883 59.3682 14.6047 58.9765 14.6047H37.8476Z" fill="white"/>
<path d="M37.302 13.9038C37.302 13.6046 37.549 13.3566 37.8471 13.3566H58.9759C59.274 13.3566 59.521 13.6046 59.521 13.9038C59.521 14.2031 59.274 14.4511 58.9759 14.4511H37.8471C37.549 14.4511 37.302 14.2031 37.302 13.9038Z" fill="white"/>
<path d="M37.8485 36.1186C37.5845 36.1186 37.329 36.016 37.1416 35.8279C36.9542 35.6398 36.8521 35.3918 36.8521 35.1182V13.9036C36.8521 13.3563 37.3034 12.9031 37.8485 12.9031C38.1125 12.9031 38.3679 13.0057 38.5553 13.1939C38.7427 13.382 38.8449 13.63 38.8449 13.9036V35.1182C38.8449 35.6654 38.3935 36.1186 37.8485 36.1186Z" fill="white"/>
<path d="M37.2599 35.7085C37.0981 35.546 37.0129 35.3408 37.0129 35.1185V13.9039C37.0129 13.4422 37.3877 13.0659 37.8475 13.0659C38.069 13.0659 38.2819 13.1514 38.4352 13.3139C38.5885 13.4764 38.6821 13.6816 38.6821 13.9039V35.1185C38.6821 35.5802 38.3074 35.9564 37.8475 35.9564C37.6261 35.9564 37.4132 35.8709 37.2599 35.7085Z" fill="white"/>
<path d="M37.8476 35.8278C37.4559 35.8278 37.1407 35.5114 37.1407 35.1181V13.9035C37.1407 13.5102 37.4559 13.1938 37.8476 13.1938C38.2394 13.1938 38.5545 13.5102 38.5545 13.9035V35.1181C38.5545 35.5114 38.2394 35.8278 37.8476 35.8278Z" fill="white"/>
<path d="M37.302 35.1184V13.9038C37.302 13.6046 37.549 13.3566 37.8471 13.3566C38.1451 13.3566 38.3921 13.6046 38.3921 13.9038V35.1184C38.3921 35.4177 38.1451 35.6657 37.8471 35.6657C37.549 35.6657 37.302 35.4177 37.302 35.1184Z" fill="white"/>
<path d="M37.8485 36.1187C37.5845 36.1187 37.329 36.0161 37.1416 35.828C36.9542 35.6398 36.8521 35.3919 36.8521 35.1182C36.8521 34.571 37.3034 34.1178 37.8485 34.1178H58.9773C59.2413 34.1178 59.4968 34.2204 59.6842 34.4085C59.8716 34.5966 59.9737 34.8446 59.9737 35.1182C59.9737 35.6655 59.5224 36.1187 58.9773 36.1187H37.8485Z" fill="white"/>
<path d="M37.2599 35.7085C37.0981 35.5461 37.0129 35.3408 37.0129 35.1185C37.0129 34.6568 37.3877 34.2805 37.8475 34.2805H58.9764C59.1978 34.2805 59.4108 34.3661 59.5641 34.5285C59.7173 34.691 59.811 34.8962 59.811 35.1185C59.811 35.5803 59.4363 35.9565 58.9764 35.9565H37.8475C37.6261 35.9565 37.4132 35.871 37.2599 35.7085Z" fill="white"/>
<path d="M37.8476 35.828C37.4559 35.828 37.1407 35.5116 37.1407 35.1183C37.1407 34.7249 37.4559 34.4086 37.8476 34.4086H58.9765C59.3682 34.4086 59.6834 34.7249 59.6834 35.1183C59.6834 35.5116 59.3682 35.828 58.9765 35.828H37.8476Z" fill="white"/>
<path d="M37.302 35.1183C37.302 34.819 37.549 34.571 37.8471 34.571H58.9759C59.274 34.571 59.521 34.819 59.521 35.1183C59.521 35.4176 59.274 35.6655 58.9759 35.6655H37.8471C37.549 35.6655 37.302 35.4176 37.302 35.1183Z" fill="white"/>
<path d="M58.9761 36.1186C58.7121 36.1186 58.4566 36.016 58.2693 35.8279C58.0819 35.6398 57.9797 35.3918 57.9797 35.1182V13.9036C57.9797 13.3563 58.4311 12.9031 58.9761 12.9031C59.2401 12.9031 59.4956 13.0057 59.683 13.1939C59.8703 13.382 59.9725 13.63 59.9725 13.9036V35.1182C59.9725 35.674 59.5297 36.1186 58.9761 36.1186Z" fill="white"/>
<path d="M58.3909 35.7082C58.2291 35.5457 58.1439 35.3405 58.1439 35.1182V13.9036C58.1439 13.4419 58.5186 13.0656 58.9785 13.0656C59.1999 13.0656 59.4128 13.1512 59.5661 13.3136C59.7194 13.4761 59.8131 13.6813 59.8131 13.9036V35.1182C59.8131 35.5799 59.4384 35.9562 58.9785 35.9562C58.7571 35.9562 58.5442 35.8707 58.3909 35.7082Z" fill="white"/>
<path d="M58.9783 35.8278C58.5866 35.8278 58.2715 35.5114 58.2715 35.1181V13.9035C58.2715 13.5102 58.5866 13.1938 58.9783 13.1938C59.3701 13.1938 59.6852 13.5102 59.6852 13.9035V35.1181C59.6852 35.5114 59.3701 35.8278 58.9783 35.8278Z" fill="white"/>
<path d="M58.4342 35.1184V13.9038C58.4342 13.6046 58.6812 13.3566 58.9793 13.3566C59.2773 13.3566 59.5243 13.6046 59.5243 13.9038V35.1184C59.5243 35.4177 59.2773 35.6657 58.9793 35.6657C58.6812 35.6657 58.4342 35.4177 58.4342 35.1184Z" fill="white"/>
<path d="M54.1309 48.9962C52.9812 48.9962 51.8996 48.5516 51.0906 47.7307C50.2815 46.9184 49.8302 45.8324 49.8302 44.6781C49.8302 43.5237 50.273 42.4549 51.0736 41.6425L65.4661 27.1917C66.2751 26.3793 67.3567 25.9261 68.5064 25.9261C69.6561 25.9261 70.7377 26.3708 71.5467 27.1917C72.3558 28.004 72.8071 29.0899 72.8071 30.2443C72.8071 31.3987 72.3643 32.4846 71.5467 33.2969C70.7377 34.1093 69.6561 34.5625 68.5064 34.5625C67.3567 34.5625 66.2751 34.1178 65.4661 33.2969C65.0743 32.9036 65.0743 32.2709 65.4661 31.8775C65.6534 31.6894 65.9004 31.5868 66.1729 31.5868C66.4455 31.5868 66.6924 31.6894 66.8798 31.8775C67.3141 32.3136 67.8932 32.553 68.5149 32.553C69.1366 32.553 69.7072 32.3136 70.15 31.8775C71.0528 30.9711 71.0528 29.5004 70.15 28.594C69.7157 28.1579 69.1366 27.9185 68.5149 27.9185C67.8932 27.9185 67.3141 28.1579 66.8798 28.594L52.5213 43.0107C52.0785 43.4553 51.8315 44.0453 51.8315 44.661C51.8315 45.2766 52.07 45.8581 52.5043 46.3027C52.9386 46.7388 53.5177 46.9783 54.1394 46.9783C54.7611 46.9783 55.3402 46.7388 55.7745 46.3027C56.2089 45.8667 56.4473 45.2852 56.4473 44.661C56.4473 44.0453 56.2089 43.4553 55.7745 43.0192C55.5872 42.8311 55.485 42.5831 55.485 42.3095C55.485 42.0359 55.5872 41.7879 55.7745 41.5998C55.9619 41.4117 56.2089 41.3091 56.4814 41.3091C56.7539 41.3091 57.0009 41.4117 57.1883 41.5998C57.9973 42.4121 58.4487 43.4981 58.4487 44.6524C58.4487 45.8068 58.0058 46.8927 57.1883 47.7051C56.3792 48.5174 55.2977 48.9706 54.148 48.9706L54.1309 48.9962Z" fill="white"/>
<path d="M51.2014 47.6196C50.4179 46.8329 49.9921 45.7897 49.9921 44.6781C49.9921 43.5665 50.4179 42.5404 51.1929 41.7537L65.5854 27.3028C67.2035 25.6782 69.8265 25.6782 71.4446 27.3028C73.0627 28.9275 73.0627 31.5612 71.4446 33.1858C69.8265 34.8105 67.2035 34.8105 65.5854 33.1858C65.2618 32.8609 65.2618 32.3222 65.5854 31.9972C65.909 31.6723 66.4455 31.6723 66.7692 31.9972C67.7315 32.9635 69.2985 32.9635 70.2608 31.9972C71.2232 31.031 71.2232 29.4576 70.2608 28.4914C69.2985 27.5252 67.7315 27.5252 66.7692 28.4914L52.4107 42.9081C51.9338 43.3869 51.6783 44.0111 51.6698 44.6781C51.6698 45.3365 51.9253 45.9607 52.3937 46.431C52.8621 46.9013 53.4838 47.1578 54.1395 47.1578C54.7953 47.1578 55.4169 46.9013 55.8853 46.431C56.3537 45.9607 56.6092 45.3365 56.6092 44.6781C56.6092 44.0111 56.3537 43.3955 55.8853 42.9252C55.5617 42.6003 55.5617 42.0616 55.8853 41.7366C56.209 41.4117 56.7455 41.4117 57.0691 41.7366C57.8526 42.5233 58.2784 43.5665 58.2784 44.6781C58.2784 45.7897 57.8441 46.8329 57.0691 47.6196C55.451 49.2442 52.828 49.2442 51.2099 47.6196H51.2014Z" fill="white"/>
<path d="M54.1309 48.7055C53.0579 48.7055 52.0529 48.2865 51.295 47.5255C50.537 46.7645 50.1198 45.7555 50.1198 44.6781C50.1198 43.6007 50.5285 42.6002 51.278 41.8478L65.6705 27.3969C66.4284 26.6358 67.4333 26.2169 68.5064 26.2169C69.5794 26.2169 70.5844 26.6358 71.3423 27.3969C72.1003 28.1579 72.5176 29.1669 72.5176 30.2443C72.5176 31.3217 72.1003 32.3307 71.3423 33.0917C70.5844 33.8527 69.5794 34.2717 68.5064 34.2717C67.4333 34.2717 66.4284 33.8527 65.6705 33.0917C65.3979 32.8181 65.3979 32.3649 65.6705 32.0913C65.8067 31.9545 65.9771 31.8861 66.1729 31.8861C66.3688 31.8861 66.5391 31.963 66.6754 32.0913C67.1693 32.5872 67.8166 32.8523 68.5149 32.8523C69.2132 32.8523 69.8605 32.5787 70.3544 32.0913C71.3678 31.0737 71.3678 29.4149 70.3544 28.3973C69.8605 27.9014 69.2132 27.6363 68.5149 27.6363C67.8166 27.6363 67.1693 27.9099 66.6754 28.3973L52.3169 42.814C51.8145 43.3185 51.542 43.9769 51.542 44.6695C51.542 45.3621 51.8145 46.0206 52.2999 46.5165C52.7853 47.0125 53.4411 47.2775 54.1394 47.2775C54.8378 47.2775 55.485 47.0039 55.9789 46.5165C56.4729 46.0206 56.7369 45.3707 56.7369 44.6695C56.7369 43.9684 56.4644 43.3185 55.9789 42.8225C55.8427 42.6857 55.7745 42.5147 55.7745 42.3181C55.7745 42.1214 55.8512 41.9504 55.9789 41.8136C56.1067 41.6767 56.2855 41.6083 56.4814 41.6083C56.6773 41.6083 56.8476 41.6853 56.9838 41.8136C57.7418 42.5746 58.1591 43.5836 58.1591 44.661C58.1591 45.7384 57.7418 46.7474 56.9838 47.5084C56.2259 48.2694 55.221 48.6884 54.148 48.6884L54.1309 48.7055Z" fill="white"/>
<path d="M50.2733 44.6781C50.2733 43.652 50.6651 42.6858 51.3889 41.959C51.3889 41.959 51.3975 41.9504 51.406 41.9418L65.7814 27.5081C67.2803 26.0031 69.7245 26.0031 71.2234 27.5081C72.7222 29.013 72.7222 31.4671 71.2234 32.972C69.7245 34.477 67.2803 34.477 65.7814 32.972C65.5685 32.7583 65.5685 32.4077 65.7814 32.1939C65.9944 31.9801 66.3435 31.9801 66.5565 32.1939C67.6295 33.2713 69.3838 33.2713 70.4569 32.1939C71.5299 31.1165 71.5299 29.355 70.4569 28.2776C69.3838 27.2002 67.6295 27.2002 66.5565 28.2776L52.198 42.6943C52.198 42.6943 52.1895 42.7029 52.181 42.7114C51.6615 43.233 51.3719 43.9342 51.3719 44.6696C51.3719 45.4135 51.6615 46.1061 52.181 46.6277C52.7004 47.1493 53.3988 47.44 54.1312 47.44C54.8636 47.44 55.5619 47.1493 56.0814 46.6277C56.6009 46.1061 56.8905 45.4049 56.8905 44.6696C56.8905 43.9256 56.6009 43.233 56.0814 42.7114C55.8685 42.4977 55.8685 42.1471 56.0814 41.9333C56.2943 41.7195 56.6435 41.7195 56.8564 41.9333C57.5803 42.6601 57.9806 43.6349 57.9806 44.6696C57.9806 45.7042 57.5803 46.6705 56.8564 47.4058C55.3575 48.9108 52.9133 48.9108 51.406 47.4058C50.6821 46.679 50.2818 45.7042 50.2818 44.6696L50.2733 44.6781Z" fill="white"/>
<path d="M64.2574 47.6451C63.9934 47.6451 63.7379 47.5425 63.5506 47.3544C63.3632 47.1663 63.261 46.9183 63.261 46.6447V40.4111C63.261 39.8553 63.7039 39.4107 64.2574 39.4107H70.4658C70.7298 39.4107 70.9853 39.5133 71.1726 39.7014C71.36 39.8895 71.4622 40.1375 71.4622 40.4111V46.6447C71.4622 47.1919 71.0108 47.6451 70.4658 47.6451H64.2574ZM69.4694 45.6442V41.4116H65.2538V45.6442H69.4694Z" fill="white"/>
<path d="M63.6575 47.2438C63.4957 47.0813 63.4105 46.8761 63.4105 46.6538V40.4203C63.4105 39.9585 63.7852 39.5823 64.2451 39.5823H70.4534C70.6749 39.5823 70.8878 39.6678 71.0411 39.8302C71.1944 39.9927 71.2881 40.1979 71.2881 40.4203V46.6538C71.2881 47.1155 70.9133 47.4918 70.4534 47.4918H64.2451C64.0237 47.4918 63.8108 47.4063 63.6575 47.2438ZM65.0882 45.8073H69.6274V41.2497H65.0882V45.8073Z" fill="white"/>
<path d="M64.2575 47.3544C63.8658 47.3544 63.5507 47.038 63.5507 46.6446V40.4111C63.5507 40.0178 63.8658 39.7014 64.2575 39.7014H70.4659C70.8576 39.7014 71.1727 40.0178 71.1727 40.4111V46.6446C71.1727 47.038 70.8576 47.3544 70.4659 47.3544H64.2575ZM69.759 45.9349V41.1123H64.9559V45.9349H69.759Z" fill="white"/>
<path d="M63.7101 46.6447V40.4111C63.7101 40.1119 63.9571 39.8639 64.2551 39.8639H70.4635C70.7616 39.8639 71.0085 40.1119 71.0085 40.4111V46.6447C71.0085 46.944 70.7616 47.1919 70.4635 47.1919H64.2551C63.9571 47.1919 63.7101 46.944 63.7101 46.6447ZM64.8001 40.9584V46.0974H69.9184V40.9584H64.8001Z" fill="white"/>
<path d="M64.2562 41.4116C63.9922 41.4116 63.7367 41.309 63.5494 41.1209L58.2693 35.828C58.0819 35.6398 57.9797 35.3833 57.9797 35.1182C57.9797 34.8532 58.0819 34.5966 58.2693 34.4085C58.4566 34.2204 58.7036 34.1178 58.9761 34.1178C59.2486 34.1178 59.4956 34.2204 59.683 34.4085L64.963 39.7015C65.3548 40.0948 65.3548 40.7276 64.963 41.1209C64.7757 41.309 64.5287 41.4116 64.2562 41.4116Z" fill="white"/>
<path d="M58.3909 35.7082C58.2291 35.5458 58.1439 35.3405 58.1439 35.1182C58.1439 34.8959 58.2291 34.6821 58.3909 34.5282C58.7145 34.2033 59.251 34.2033 59.5746 34.5282L64.8547 39.8297C65.1784 40.1547 65.1784 40.6934 64.8547 41.0183C64.5311 41.3432 63.9946 41.3432 63.671 41.0183L58.3909 35.7168V35.7082Z" fill="white"/>
<path d="M64.2585 41.121C64.0711 41.121 63.8922 41.0441 63.756 40.9158L58.4759 35.6143C58.3396 35.4775 58.2715 35.3065 58.2715 35.1098C58.2715 34.9131 58.3481 34.7421 58.4759 34.6053C58.6121 34.4685 58.7825 34.4001 58.9783 34.4001C59.1742 34.4001 59.3445 34.477 59.4808 34.6053L64.7609 39.9068C65.0334 40.1804 65.0334 40.6336 64.7609 40.9073C64.6246 41.0441 64.4543 41.1125 64.2585 41.1125V41.121Z" fill="white"/>
<path d="M58.4342 35.1182C58.4342 34.9814 58.4853 34.8361 58.596 34.7334C58.8089 34.5197 59.1581 34.5197 59.371 34.7334L64.6511 40.035C64.864 40.2487 64.864 40.5993 64.6511 40.8131C64.4382 41.0269 64.089 41.0269 63.8761 40.8131L58.596 35.5116C58.4853 35.4004 58.4342 35.2636 58.4342 35.1268V35.1182Z" fill="white"/>
<path d="M42.6925 48.9961C41.5428 48.9961 40.4612 48.5515 39.6522 47.7306C38.8431 46.9097 38.3918 45.8323 38.3918 44.678C38.3918 43.5236 38.8431 42.4376 39.6522 41.6253C39.8395 41.4372 40.0865 41.3346 40.359 41.3346C40.6315 41.3346 40.8785 41.4372 41.0659 41.6253C41.2532 41.8134 41.3554 42.0614 41.3554 42.335C41.3554 42.6001 41.2532 42.8566 41.0659 43.0447C40.6316 43.4808 40.3931 44.0623 40.3931 44.6865C40.3931 45.3022 40.6316 45.8836 41.0659 46.3283C41.5002 46.7644 42.0793 47.0038 42.701 47.0038C43.3227 47.0038 43.9018 46.7644 44.3361 46.3283C44.7705 45.8922 45.0089 45.3107 45.0089 44.6865C45.0089 44.0623 44.7705 43.4894 44.3361 43.0447L29.9777 28.6281C29.5348 28.1834 28.9472 27.9355 28.3255 27.9355C27.7038 27.9355 27.1333 28.1749 26.6989 28.611C25.7962 29.5174 25.7962 30.9881 26.6989 31.8945C27.1333 32.3306 27.7124 32.57 28.3255 32.57C28.9387 32.57 29.5263 32.3306 29.9606 31.8945C30.148 31.7064 30.395 31.6038 30.6675 31.6038C30.94 31.6038 31.187 31.7064 31.3744 31.8945C31.7661 32.2878 31.7661 32.9206 31.3744 33.3054C30.5653 34.1177 29.4837 34.5709 28.334 34.5709C27.1843 34.5709 26.1028 34.1262 25.2937 33.3054C24.4847 32.493 24.0333 31.4071 24.0333 30.2527C24.0333 29.0984 24.4762 28.0124 25.2937 27.2001C26.1028 26.3878 27.1843 25.9431 28.334 25.9431C29.4837 25.9431 30.5483 26.3878 31.3573 27.1915L45.7498 41.6424C46.5589 42.4547 47.0102 43.5407 47.0102 44.6951C47.0102 45.8494 46.5674 46.9354 45.7498 47.7477C44.9323 48.56 43.8592 49.0132 42.7095 49.0132L42.6925 48.9961Z" fill="white"/>
<path d="M39.7711 47.6196C38.9876 46.8329 38.5618 45.7897 38.5618 44.6781C38.5618 43.5665 38.9961 42.5233 39.7796 41.7366C40.1032 41.4117 40.6398 41.4117 40.9634 41.7366C41.1252 41.8991 41.2103 42.1043 41.2103 42.3352C41.2103 42.5575 41.1252 42.7713 40.9634 42.9252C40.495 43.3955 40.2395 44.0197 40.2395 44.6781C40.2395 45.3365 40.495 45.9607 40.9634 46.431C41.9257 47.3973 43.4927 47.3973 44.455 46.431C44.9234 45.9607 45.1789 45.3365 45.1789 44.6781C45.1789 44.0197 44.9234 43.3955 44.455 42.9252L30.0966 28.5085C29.1172 27.5252 27.5502 27.5252 26.5879 28.4914C25.6256 29.4577 25.6256 31.031 26.5879 31.9972C27.0563 32.4675 27.678 32.7241 28.3337 32.7241C28.9895 32.7241 29.6112 32.4675 30.0796 31.9972C30.4032 31.6723 30.9397 31.6723 31.2633 31.9972C31.5869 32.3222 31.5869 32.8609 31.2633 33.1858C29.6452 34.8105 27.0222 34.8105 25.4041 33.1858C24.6206 32.3991 24.1948 31.3559 24.1948 30.2443C24.1948 29.1327 24.6291 28.0895 25.4041 27.3028C27.0137 25.6867 29.6282 25.6867 31.2463 27.2857L45.6388 41.7366C47.2569 43.3613 47.2569 45.9949 45.6388 47.6196C44.0207 49.2442 41.3977 49.2442 39.7796 47.6196H39.7711Z" fill="white"/>
<path d="M42.6905 48.7055C41.6175 48.7055 40.6125 48.2865 39.8546 47.5255C39.0966 46.7645 38.6793 45.7555 38.6793 44.6781C38.6793 43.6007 39.0966 42.5917 39.8546 41.8307C39.9908 41.6938 40.1612 41.6254 40.357 41.6254C40.5529 41.6254 40.7232 41.7024 40.8595 41.8307C40.9958 41.9589 41.0639 42.1385 41.0639 42.3352C41.0639 42.5233 40.9872 42.7028 40.8595 42.8311C40.3656 43.327 40.093 43.9769 40.093 44.6781C40.093 45.3792 40.3656 46.0291 40.851 46.5251C41.3449 47.021 41.9922 47.2861 42.6905 47.2861C43.3889 47.2861 44.0361 47.0124 44.53 46.5251C45.024 46.0291 45.288 45.3792 45.288 44.6781C45.288 43.9769 45.0155 43.327 44.53 42.8311L30.1716 28.4144C29.6691 27.9099 29.0134 27.6363 28.315 27.6363C27.6167 27.6363 26.9695 27.9099 26.4755 28.3973C25.4621 29.4149 25.4621 31.0737 26.4755 32.0913C26.9695 32.5872 27.6167 32.8523 28.315 32.8523C29.0134 32.8523 29.6606 32.5787 30.1546 32.0913C30.2908 31.9545 30.4611 31.8861 30.657 31.8861C30.8529 31.8861 31.0232 31.963 31.1595 32.0913C31.432 32.3649 31.432 32.8181 31.1595 33.0917C30.4015 33.8527 29.3966 34.2717 28.3236 34.2717C27.2505 34.2717 26.2456 33.8527 25.4876 33.0917C24.7297 32.3307 24.3124 31.3217 24.3124 30.2443C24.3124 29.1669 24.7297 28.1579 25.4876 27.3969C26.2456 26.6358 27.2505 26.2169 28.3236 26.2169C29.3966 26.2169 30.393 26.6273 31.1424 27.3798L45.535 41.8307C47.1019 43.404 47.0934 45.9522 45.535 47.5255C44.777 48.2865 43.7721 48.7055 42.699 48.7055H42.6905Z" fill="white"/>
<path d="M24.4761 30.2443C24.4761 29.2524 24.8508 28.2606 25.6002 27.5081C27.0991 26.0031 29.5262 26.0031 31.0336 27.491C31.0336 27.491 31.0421 27.4995 31.0506 27.5081L45.4261 41.9419C46.925 43.4468 46.925 45.9009 45.4261 47.4058C43.9273 48.9108 41.4831 48.9108 39.9842 47.4058C39.2603 46.679 38.8601 45.7042 38.8601 44.6696C38.8601 43.6349 39.2603 42.6687 39.9927 41.9333C40.2056 41.7195 40.5548 41.7195 40.7677 41.9333C40.9806 42.1471 40.9806 42.4977 40.7677 42.7114C40.2482 43.233 39.9587 43.9342 39.9587 44.6696C39.9587 45.4135 40.2482 46.1061 40.7677 46.6277C41.8408 47.7051 43.5951 47.7051 44.6682 46.6277C45.1877 46.1061 45.4772 45.4049 45.4772 44.6696C45.4772 43.9257 45.1877 43.233 44.6682 42.7114L30.3097 28.2948C30.3097 28.2948 30.3012 28.2862 30.2927 28.2777C29.2197 27.2003 27.4653 27.2003 26.3922 28.2777C25.3192 29.3551 25.3192 31.1165 26.3922 32.1939C26.9117 32.7155 27.6101 33.0063 28.3425 33.0063C29.0834 33.0063 29.7732 32.7155 30.2927 32.1939C30.5056 31.9802 30.8548 31.9802 31.0677 32.1939C31.2806 32.4077 31.2806 32.7583 31.0677 32.9721C29.5688 34.477 27.1246 34.477 25.6258 32.9721C24.8763 32.2196 24.5016 31.2277 24.5016 30.2358L24.4761 30.2443Z" fill="white"/>
<path d="M26.3599 47.6451C26.0959 47.6451 25.8404 47.5425 25.6531 47.3544C25.4657 47.1663 25.3635 46.9097 25.3635 46.6447V40.4111C25.3635 39.8639 25.8149 39.4107 26.3599 39.4107H32.5683C32.8323 39.4107 33.0878 39.5133 33.2752 39.7014C33.4625 39.8895 33.5647 40.1375 33.5647 40.4111V46.6447C33.5647 47.1919 33.1218 47.6451 32.5683 47.6451H26.3599ZM31.5719 45.6442V41.4116H27.3563V45.6442H31.5719Z" fill="white"/>
<path d="M25.7722 47.2438C25.6104 47.0813 25.5253 46.8761 25.5253 46.6538V40.4203C25.5253 39.9585 25.9 39.5823 26.3598 39.5823H32.5682C32.7896 39.5823 33.0026 39.6678 33.1558 39.8302C33.3091 39.9927 33.4028 40.1979 33.4028 40.4203V46.6538C33.4028 47.1155 33.0281 47.4918 32.5682 47.4918H26.3598C26.1384 47.4918 25.9255 47.4063 25.7722 47.2438ZM27.203 45.8073H31.7421V41.2497H27.203V45.8073Z" fill="white"/>
<path d="M26.3598 47.3544C25.968 47.3544 25.653 47.038 25.653 46.6446V40.4111C25.653 40.0178 25.968 39.7014 26.3598 39.7014H32.5682C32.9599 39.7014 33.275 40.0178 33.275 40.4111V46.6446C33.275 47.038 32.9599 47.3544 32.5682 47.3544H26.3598ZM31.8613 45.9349V41.1123H27.0581V45.9349H31.8613Z" fill="white"/>
<path d="M25.8135 46.6447V40.4111C25.8135 40.1119 26.0604 39.8639 26.3585 39.8639H32.5669C32.8649 39.8639 33.1119 40.1119 33.1119 40.4111V46.6447C33.1119 46.944 32.8649 47.1919 32.5669 47.1919H26.3585C26.0604 47.1919 25.8135 46.944 25.8135 46.6447ZM26.9036 40.9584V46.0974H32.0218V40.9584H26.9036Z" fill="white"/>
<path d="M32.5658 41.4115C32.3018 41.4115 32.0464 41.3089 31.859 41.1208C31.6717 40.9327 31.5695 40.6847 31.5695 40.4111C31.5695 40.1375 31.6717 39.8895 31.859 39.7014L37.1391 34.3999C37.3264 34.2117 37.5734 34.1091 37.846 34.1091C38.1185 34.1091 38.3654 34.2117 38.5528 34.3999C38.7401 34.588 38.8423 34.836 38.8423 35.1096C38.8423 35.3832 38.7401 35.6312 38.5528 35.8193L33.2727 41.1208C33.0854 41.3089 32.8384 41.4115 32.5658 41.4115Z" fill="white"/>
<path d="M31.9771 41.0098C31.8152 40.8474 31.7301 40.6421 31.7301 40.4198C31.7301 40.1975 31.8152 39.9837 31.9771 39.8298L37.2572 34.5283C37.4105 34.3658 37.6234 34.2803 37.8448 34.2803C38.0662 34.2803 38.2791 34.3658 38.4324 34.5283C38.756 34.8532 38.756 35.3919 38.4324 35.7169L33.1523 41.0184C32.9905 41.1808 32.7861 41.2664 32.5647 41.2664C32.3433 41.2664 32.1303 41.1808 31.9771 41.0184V41.0098Z" fill="white"/>
<path d="M32.565 41.121C32.3776 41.121 32.1988 41.0441 32.0625 40.9158C31.9263 40.7875 31.8582 40.608 31.8582 40.4113C31.8582 40.2146 31.9348 40.0436 32.0625 39.9068L37.3426 34.6053C37.4789 34.4685 37.6492 34.4001 37.8451 34.4001C38.041 34.4001 38.2113 34.477 38.3476 34.6053C38.4838 34.7336 38.5519 34.9131 38.5519 35.1098C38.5519 35.3065 38.4753 35.4775 38.3476 35.6143L33.0675 40.9158C32.9312 41.0526 32.7609 41.121 32.565 41.121Z" fill="white"/>
<path d="M32.0187 40.4115C32.0187 40.2747 32.0698 40.1293 32.1805 40.0267L37.4606 34.7252C37.6735 34.5114 38.0226 34.5114 38.2355 34.7252C38.4485 34.9389 38.4485 35.2895 38.2355 35.5033L32.9554 40.8048C32.7425 41.0186 32.3934 41.0186 32.1805 40.8048C32.0698 40.6936 32.0187 40.5568 32.0187 40.42V40.4115Z" fill="white"/>
<path d="M28.3195 23.0872C27.1698 23.0872 26.0883 22.6426 25.2792 21.8217C24.4702 21.0094 24.0188 19.9234 24.0188 18.769C24.0188 17.6147 24.4702 16.5287 25.2792 15.7164C26.0883 14.9041 27.1698 14.4509 28.3195 14.4509C29.4692 14.4509 30.5508 14.9041 31.3598 15.7164C31.7516 16.1097 31.7516 16.7425 31.3598 17.1358C31.1725 17.3239 30.9255 17.4266 30.653 17.4266C30.389 17.4266 30.1335 17.3239 29.9461 17.1358C29.5118 16.6997 28.9327 16.4603 28.311 16.4518C27.6978 16.4518 27.1102 16.6912 26.6759 17.1273C26.2416 17.5634 26.0031 18.1448 26.0031 18.769C26.0031 19.3847 26.2416 19.9747 26.6759 20.4108C27.1102 20.8469 27.6893 21.0863 28.311 21.0863C28.9327 21.0863 29.5033 20.8469 29.9461 20.4108L44.3131 5.98557C44.7559 5.54093 44.9944 4.95947 44.9944 4.33526C44.9944 3.71105 44.756 3.1296 44.3216 2.69351C43.8873 2.25742 43.3082 2.00944 42.6865 2.00944C42.0733 2.00944 41.4857 2.24886 41.0513 2.68496C40.1486 3.59134 40.1486 5.06208 41.0513 5.95992C41.4431 6.35325 41.4431 6.98602 41.0513 7.3708C40.864 7.55892 40.617 7.66153 40.3445 7.66153C40.072 7.66153 39.825 7.55892 39.6377 7.3708C38.8286 6.55848 38.3773 5.47252 38.3773 4.31816C38.3773 3.1638 38.8201 2.07785 39.6377 1.26552C40.4467 0.453193 41.5283 0 42.678 0C43.8277 0 44.9092 0.444642 45.7183 1.26552C47.3875 2.94148 47.396 5.67774 45.7268 7.36225L31.3428 21.8046C30.5338 22.6169 29.4522 23.0701 28.3025 23.0701L28.3195 23.0872Z" fill="white"/>
<path d="M25.3967 21.7105C24.6132 20.9238 24.1873 19.8806 24.1788 18.769C24.1788 17.6574 24.6132 16.6142 25.3882 15.8275C26.1717 15.0409 27.2106 14.6133 28.3178 14.6133C29.4249 14.6133 30.4639 15.0494 31.2474 15.8275C31.571 16.1525 31.571 16.6912 31.2474 17.0161C30.9237 17.341 30.3872 17.341 30.0636 17.0161C29.5952 16.5458 28.9735 16.2893 28.3178 16.2893C27.662 16.2893 27.0403 16.5458 26.5719 17.0161C26.1035 17.4864 25.848 18.1106 25.848 18.769C25.848 19.436 26.1035 20.0516 26.5719 20.5219C27.0403 20.9922 27.6535 21.2488 28.3178 21.2488C28.982 21.2488 29.5952 20.9922 30.0636 20.5219L44.4305 6.0967C45.4014 5.12191 45.4014 3.54856 44.4391 2.58231C43.9707 2.11202 43.349 1.8555 42.6932 1.8555C42.0375 1.8555 41.4158 2.11202 40.9474 2.58231C39.985 3.54856 39.985 5.12191 40.9474 6.08815C41.271 6.41308 41.271 6.95178 40.9474 7.27671C40.6238 7.60164 40.0873 7.60164 39.7636 7.27671C38.9801 6.49004 38.5543 5.44684 38.5543 4.33523C38.5543 3.22363 38.9801 2.18043 39.7636 1.39375C40.5471 0.607076 41.5861 0.179535 42.6932 0.179535C43.8004 0.179535 44.8393 0.615627 45.6228 1.39375C47.2324 3.00986 47.2324 5.64351 45.6228 7.26816L31.2388 21.7105C29.6207 23.3351 26.9977 23.3351 25.3796 21.7105H25.3967Z" fill="white"/>
<path d="M28.3178 22.7964C27.2447 22.7964 26.2398 22.3774 25.4819 21.6164C24.7239 20.8553 24.3066 19.8463 24.3066 18.7689C24.3066 17.6915 24.7239 16.6825 25.4819 15.9215C26.2398 15.1605 27.2447 14.7415 28.3178 14.7415C29.3909 14.7415 30.3958 15.1605 31.1537 15.9215C31.4262 16.1951 31.4262 16.6483 31.1537 16.922C31.0174 17.0588 30.8471 17.1272 30.6513 17.1272C30.4554 17.1272 30.2851 17.0502 30.1488 16.922C29.6549 16.426 29.0076 16.1609 28.3093 16.1609C27.6109 16.1609 26.9637 16.4346 26.4698 16.922C25.9758 17.4179 25.7118 18.0678 25.7118 18.7689C25.7118 19.4701 25.9843 20.12 26.4783 20.6159C26.9722 21.1119 27.6195 21.3769 28.3178 21.3769C29.0161 21.3769 29.6634 21.1033 30.1573 20.6159L44.5243 6.19067C45.5462 5.16457 45.5462 3.50572 44.5328 2.48817C44.0389 1.99222 43.3916 1.72714 42.6933 1.72714C41.9949 1.72714 41.3477 2.00077 40.8538 2.48817C40.3598 2.98412 40.0958 3.63398 40.0958 4.33514C40.0958 5.03631 40.3683 5.68617 40.8538 6.18212C41.1263 6.45575 41.1263 6.90894 40.8538 7.18257C40.7175 7.31938 40.5472 7.38779 40.3513 7.38779C40.1554 7.38779 39.9851 7.31083 39.8488 7.18257C39.0909 6.42154 38.6736 5.41255 38.6736 4.33514C38.6736 3.25774 39.0909 2.24874 39.8488 1.48772C40.6068 0.726699 41.6117 0.307709 42.6848 0.307709C43.7578 0.307709 44.7627 0.726699 45.5207 1.48772C47.0791 3.05252 47.0791 5.60067 45.5207 7.17402L31.1367 21.6164C30.3787 22.3774 29.3738 22.7964 28.3008 22.7964H28.3178Z" fill="white"/>
<path d="M24.4666 18.769C24.4666 17.7344 24.8669 16.7682 25.5908 16.0328C26.3147 15.306 27.2855 14.9041 28.316 14.9041C29.3465 14.9041 30.3088 15.306 31.0412 16.0413C31.2541 16.2551 31.2541 16.6057 31.0412 16.8195C30.8283 17.0332 30.4791 17.0332 30.2662 16.8195C29.7467 16.2979 29.0484 16.0071 28.316 16.0071C27.5751 16.0071 26.8853 16.2979 26.3658 16.8195C25.8463 17.3411 25.5567 18.0422 25.5567 18.7776C25.5567 19.5215 25.8463 20.2141 26.3658 20.7357C26.8853 21.2573 27.5836 21.5481 28.316 21.5481C29.0569 21.5481 29.7467 21.2573 30.2662 20.7357L44.6332 6.3105C45.7062 5.2331 45.7062 3.47163 44.6332 2.39422C44.1137 1.87262 43.4154 1.5819 42.683 1.5819C41.9506 1.5819 41.2522 1.87262 40.7327 2.39422C39.6597 3.47163 39.6597 5.2331 40.7327 6.3105C40.9456 6.52427 40.9456 6.87485 40.7327 7.08862C40.5198 7.30239 40.1706 7.30239 39.9577 7.08862C38.4589 5.58368 38.4589 3.12959 39.9577 1.62465C41.4566 0.119705 43.9008 0.119705 45.4082 1.62465C46.907 3.12959 46.907 5.57513 45.4082 7.08007C45.4082 7.08007 45.4082 7.08007 45.4082 7.08862L31.0327 21.5224C29.5338 23.0273 27.0896 23.0273 25.5908 21.5224C24.8669 20.7956 24.4666 19.8208 24.4581 18.7861L24.4666 18.769Z" fill="white"/>
<path d="M26.3602 9.60254C26.0962 9.60254 25.8407 9.49993 25.6533 9.31181C25.466 9.12369 25.3638 8.87572 25.3638 8.60209V2.36855C25.3638 2.10347 25.466 1.84695 25.6533 1.65883C25.8407 1.47071 26.0876 1.3681 26.3602 1.3681H32.5685C32.8325 1.3681 33.088 1.47071 33.2754 1.65883C33.4628 1.84695 33.5649 2.10347 33.5649 2.36855V8.60209C33.5649 9.15789 33.1221 9.60254 32.5685 9.60254H26.3602ZM31.5721 7.60164V3.36899H27.3566V7.60164H31.5721Z" fill="white"/>
<path d="M25.7722 9.2006C25.6104 9.03813 25.5253 8.83292 25.5253 8.61059V2.3685C25.5253 1.90675 25.9 1.53052 26.3598 1.53052H32.5682C32.7896 1.53052 33.0026 1.61603 33.1558 1.77849C33.3091 1.94096 33.4028 2.14618 33.4028 2.3685V8.60204C33.4028 9.06379 33.0281 9.44002 32.5682 9.44002H26.3598C26.1384 9.44002 25.9255 9.35451 25.7722 9.19205V9.2006ZM27.203 7.76406H31.7421V3.20648H27.203V7.76406Z" fill="white"/>
<path d="M26.36 9.31183C25.9683 9.31183 25.6532 8.99545 25.6532 8.60211V2.36856C25.6532 1.97522 25.9683 1.65884 26.36 1.65884H32.5684C32.9602 1.65884 33.2753 1.97522 33.2753 2.36856V8.60211C33.2753 8.99545 32.9602 9.31183 32.5684 9.31183H26.36ZM31.8616 7.89239V3.07828H27.0584V7.90094H31.8616V7.89239Z" fill="white"/>
<path d="M25.8138 8.60215V2.3686C25.8138 2.06932 26.0608 1.82135 26.3589 1.82135H32.5672C32.8653 1.82135 33.1123 2.06932 33.1123 2.3686V8.60215C33.1123 8.90143 32.8653 9.1494 32.5672 9.1494H26.3589C26.0608 9.1494 25.8138 8.90143 25.8138 8.60215ZM26.9039 2.91585V8.0549H32.0222V2.91585H26.9039Z" fill="white"/>
<path d="M37.8463 14.9041C37.5823 14.9041 37.3268 14.8015 37.1395 14.6134L31.8594 9.32042C31.672 9.13231 31.5698 8.88433 31.5698 8.61071C31.5698 8.34563 31.672 8.08911 31.8594 7.90099C32.0467 7.71287 32.2937 7.61026 32.5662 7.61026C32.8387 7.61026 33.0857 7.71287 33.2731 7.90099L38.5532 13.1939C38.7405 13.3821 38.8427 13.63 38.8427 13.9037C38.8427 14.1773 38.7405 14.4253 38.5532 14.6134C38.3658 14.8015 38.1188 14.9041 37.8463 14.9041Z" fill="white"/>
<path d="M31.9777 9.20097C31.8159 9.0385 31.7307 8.83328 31.7307 8.61096C31.7307 8.38864 31.8159 8.17487 31.9777 8.01241C32.3013 7.68747 32.8378 7.68747 33.1614 8.01241L38.4415 13.3139C38.7651 13.6388 38.7651 14.1775 38.4415 14.5025C38.2797 14.6649 38.0753 14.7504 37.8539 14.7504C37.6325 14.7504 37.4196 14.6649 37.2663 14.5025L31.9862 9.20097H31.9777Z" fill="white"/>
<path d="M37.8455 14.6046C37.6581 14.6046 37.4793 14.5277 37.343 14.3994L32.0629 9.09791C31.9266 8.9611 31.8585 8.79008 31.8585 8.59342C31.8585 8.39675 31.9352 8.22573 32.0629 8.08892C32.1992 7.9521 32.3695 7.8837 32.5654 7.8837C32.7612 7.8837 32.9316 7.96065 33.0678 8.08892L38.3479 13.3904C38.4842 13.5272 38.5523 13.6983 38.5523 13.8949C38.5523 14.0916 38.4757 14.2626 38.3479 14.3994C38.2202 14.5362 38.0413 14.6046 37.8455 14.6046Z" fill="white"/>
<path d="M32.019 8.60221C32.019 8.4654 32.0701 8.32004 32.1809 8.21743C32.3938 8.00366 32.7429 8.00366 32.9558 8.21743L38.2359 13.5189C38.4488 13.7327 38.4488 14.0833 38.2359 14.2971C38.023 14.5108 37.6738 14.5108 37.4609 14.2971L32.1809 8.99555C32.0701 8.88439 32.019 8.74758 32.019 8.61076V8.60221Z" fill="white"/>
<path d="M68.5081 23.0874C67.3669 23.0874 66.2853 22.6428 65.4763 21.839L51.0838 7.38814C50.2747 6.57581 49.8234 5.48986 49.8234 4.3355C49.8234 3.18114 50.2662 2.09518 51.0838 1.28285C51.8928 0.470527 52.9744 0.017334 54.1241 0.017334C55.2738 0.017334 56.3553 0.470527 57.1644 1.28285C57.9734 2.09518 58.4248 3.18114 58.4248 4.3355C58.4248 5.48986 57.9734 6.57581 57.1644 7.38814C56.977 7.57625 56.73 7.67886 56.4575 7.67886C56.185 7.67886 55.9381 7.57625 55.7507 7.38814C55.5634 7.20002 55.4611 6.95204 55.4611 6.67842C55.4611 6.40479 55.5634 6.15682 55.7507 5.9687C56.6534 5.06231 56.6534 3.59157 55.7507 2.69374C55.3164 2.25765 54.7372 2.01822 54.1155 2.01822C53.4939 2.01822 52.9148 2.25765 52.4804 2.69374C52.0461 3.12983 51.8076 3.71129 51.8076 4.3355C51.8076 4.9597 52.0461 5.54116 52.4804 5.97725L66.8474 20.4025C67.2902 20.8471 67.8779 21.0951 68.491 21.0951C69.1042 21.0951 69.6918 20.8557 70.1261 20.4196C71.0289 19.5132 71.0289 18.0425 70.1261 17.1361C69.6918 16.7 69.1127 16.4606 68.491 16.4606C67.8693 16.4606 67.2902 16.7 66.8559 17.1446C66.6686 17.3327 66.4216 17.4353 66.149 17.4353C65.8765 17.4353 65.6295 17.3327 65.4422 17.1446C65.0504 16.7513 65.0504 16.1185 65.4422 15.7337C66.2512 14.9214 67.3328 14.4682 68.4825 14.4682C69.6322 14.4682 70.7138 14.9214 71.5228 15.7337C73.2005 17.4182 73.2005 20.1545 71.5228 21.8476C70.7138 22.6599 69.6322 23.1045 68.4825 23.1045L68.5081 23.0874Z" fill="white"/>
<path d="M51.2032 7.27669C50.4197 6.49001 49.9939 5.44682 49.9939 4.33521C49.9939 3.2236 50.4197 2.1804 51.2032 1.39373C51.9867 0.607051 53.0257 0.170959 54.1328 0.170959C55.2399 0.170959 56.2789 0.5985 57.0624 1.38518C57.8459 2.17185 58.2717 3.21505 58.2717 4.32666C58.2717 5.43826 57.8374 6.48146 57.0539 7.26814C56.9006 7.4306 56.6877 7.51611 56.4663 7.51611C56.2448 7.51611 56.0319 7.4306 55.8786 7.26814C55.555 6.94321 55.555 6.40451 55.8786 6.07958C56.841 5.11333 56.841 3.53998 55.8786 2.57374C55.4103 2.10344 54.7886 1.84692 54.1328 1.84692C53.4771 1.84692 52.8554 2.10344 52.387 2.57374C51.9186 3.04403 51.6631 3.65969 51.6631 4.32666C51.6631 4.98507 51.9186 5.60928 52.387 6.07958L66.7539 20.5048C67.2309 20.9837 67.8525 21.2402 68.5083 21.2402C69.1726 21.2402 69.7857 20.9837 70.2541 20.5134C71.2165 19.5471 71.2165 17.9738 70.2541 17.0075C69.7857 16.5372 69.164 16.2807 68.5083 16.2807C67.8525 16.2807 67.2309 16.5372 66.7625 17.0075C66.4389 17.3325 65.9023 17.3325 65.5787 17.0075C65.2551 16.6826 65.2551 16.1439 65.5787 15.819C66.3622 15.0323 67.4012 14.6047 68.5083 14.5962C69.6154 14.5962 70.6544 15.0323 71.4379 15.8104C73.056 17.4351 73.056 20.0687 71.4379 21.6934C69.8283 23.3095 67.2053 23.3095 65.5957 21.7019H65.5787L51.2032 7.25959V7.27669Z" fill="white"/>
<path d="M68.5069 22.7965C67.4423 22.7965 66.4374 22.3861 65.6794 21.6336L51.2869 7.19126C50.529 6.43024 50.1117 5.42124 50.1117 4.34384C50.1117 3.26644 50.529 2.25744 51.2869 1.49642C52.0449 0.735396 53.0498 0.316406 54.1229 0.316406C55.1959 0.316406 56.2008 0.735396 56.9588 1.49642C57.7167 2.25744 58.134 3.26644 58.134 4.34384C58.134 5.42124 57.7167 6.43024 56.9588 7.19126C56.8225 7.32807 56.6522 7.39648 56.4563 7.39648C56.2604 7.39648 56.0901 7.31952 55.9539 7.19126C55.6814 6.91764 55.6814 6.46444 55.9539 6.19082C56.9673 5.17327 56.9673 3.51441 55.9539 2.49686C55.4599 2.00092 54.8127 1.73584 54.1143 1.73584C53.416 1.73584 52.7688 2.00947 52.2748 2.50541C51.7809 3.00136 51.5169 3.65122 51.5169 4.35239C51.5169 5.05356 51.7894 5.70342 52.2748 6.19937L66.6418 20.6246C67.1443 21.1291 67.8 21.4027 68.4898 21.4027C69.1796 21.4027 69.8354 21.1291 70.3294 20.6417C71.3428 19.6241 71.3428 17.9653 70.3294 16.9477C69.8354 16.4518 69.1881 16.1867 68.4898 16.1867C67.7915 16.1867 67.1443 16.4603 66.6503 16.9563C66.5141 17.0931 66.3437 17.1615 66.1478 17.1615C65.952 17.1615 65.7817 17.0846 65.6454 16.9563C65.3729 16.6827 65.3729 16.2295 65.6454 15.9558C66.4034 15.1948 67.4082 14.7758 68.4813 14.7758C69.5543 14.7758 70.5593 15.1948 71.3172 15.9558C72.0752 16.7169 72.4925 17.7259 72.4925 18.8033C72.4925 19.8807 72.0752 20.8897 71.3172 21.6507C70.5593 22.4117 69.5543 22.8307 68.4813 22.8307L68.5069 22.7965Z" fill="white"/>
<path d="M50.2826 4.33516C50.2826 3.34327 50.6573 2.35137 51.4067 1.5989C52.1306 0.872079 53.1015 0.47019 54.1319 0.461639C55.1624 0.461639 56.1248 0.863528 56.8572 1.59035C57.581 2.31717 57.9813 3.29196 57.9813 4.32661C57.9813 5.36126 57.581 6.3275 56.8486 7.06287C56.6357 7.27664 56.2865 7.27664 56.0736 7.06287C55.8607 6.8491 55.8607 6.49852 56.0736 6.28475C57.1467 5.20734 57.1467 3.44587 56.0736 2.36847C55.5541 1.84687 54.8558 1.55614 54.1234 1.55614C53.3825 1.55614 52.6927 1.84687 52.1732 2.36847C51.6537 2.89007 51.3642 3.59124 51.3642 4.32661C51.3642 5.07053 51.6537 5.76315 52.1732 6.28475L66.5402 20.71C66.5402 20.71 66.5402 20.71 66.5487 20.7185C67.0682 21.2401 67.7665 21.5309 68.4989 21.5309C69.2398 21.5309 69.9296 21.2401 70.4491 20.7185C71.5222 19.6411 71.5222 17.8797 70.4491 16.8023C69.9296 16.2807 69.2313 15.9899 68.4989 15.9899C67.758 15.9899 67.0682 16.2807 66.5487 16.8023C66.3358 17.016 65.9866 17.016 65.7737 16.8023C65.5608 16.5885 65.5608 16.2379 65.7737 16.0241C66.4976 15.2973 67.4684 14.8954 68.4989 14.8954C69.5294 14.8954 70.4917 15.2973 71.2241 16.0241C72.723 17.5291 72.723 19.9832 71.2241 21.4967C69.7252 23.0016 67.2896 23.0016 65.7907 21.5052C65.7907 21.5052 65.7907 21.5052 65.7822 21.4967L51.4067 7.06287C50.6573 6.3104 50.2826 5.3185 50.2826 4.32661V4.33516Z" fill="white"/>
<path d="M64.2595 9.60254C63.9955 9.60254 63.74 9.49993 63.5526 9.31181C63.3653 9.12369 63.2631 8.87572 63.2631 8.60209V2.36855C63.2631 2.10347 63.3653 1.84695 63.5526 1.65883C63.74 1.47071 63.987 1.3681 64.2595 1.3681H70.4678C70.7319 1.3681 70.9874 1.47071 71.1747 1.65883C71.3621 1.84695 71.4642 2.09492 71.4642 2.36855V8.60209C71.4642 9.15789 71.0214 9.60254 70.4678 9.60254H64.2595ZM69.4715 7.60164V3.36899H65.2559V7.60164H69.4715Z" fill="white"/>
<path d="M63.6594 9.20084C63.4976 9.03838 63.4125 8.83316 63.4125 8.61084V2.36874C63.4125 2.14642 63.4976 1.93265 63.6594 1.77874C63.8212 1.62482 64.0256 1.53076 64.2471 1.53076H70.4554C70.6768 1.53076 70.8897 1.61627 71.043 1.77874C71.1963 1.9412 71.29 2.14642 71.29 2.36874V8.60229C71.29 9.06403 70.9153 9.44027 70.4554 9.44027H64.2471C64.0256 9.44027 63.8127 9.35476 63.6594 9.19229V9.20084ZM65.0902 7.76431H69.6293V3.20672H65.0902V7.76431Z" fill="white"/>
<path d="M64.26 9.31183C63.8682 9.31183 63.5531 8.99545 63.5531 8.60211V2.36856C63.5531 1.97522 63.8682 1.65884 64.26 1.65884H70.4683C70.8601 1.65884 71.1752 1.97522 71.1752 2.36856V8.60211C71.1752 8.99545 70.8601 9.31183 70.4683 9.31183H64.26ZM69.7614 7.89239V3.07828H64.9583V7.90094H69.7614V7.89239Z" fill="white"/>
<path d="M63.7124 8.60209V2.36854C63.7124 2.06926 63.9594 1.82129 64.2575 1.82129H70.4658C70.7639 1.82129 71.0109 2.06926 71.0109 2.36854V8.60209C71.0109 8.90137 70.7639 9.14934 70.4658 9.14934H64.2575C63.9594 9.14934 63.7124 8.90137 63.7124 8.60209ZM64.8025 2.91579V8.05484H69.9207V2.91579H64.8025Z" fill="white"/>
<path d="M58.9761 14.9041C58.7121 14.9041 58.4566 14.8015 58.2693 14.6134C58.0819 14.4253 57.9797 14.1773 57.9797 13.9037C57.9797 13.63 58.0819 13.3821 58.2693 13.1939L63.5494 7.89244C63.7367 7.70433 63.9837 7.60172 64.2562 7.60172C64.5287 7.60172 64.7757 7.70433 64.963 7.89244C65.3548 8.28578 65.3548 8.91854 64.963 9.30333L59.683 14.6048C59.4956 14.793 59.2486 14.8956 58.9761 14.8956V14.9041Z" fill="white"/>
<path d="M58.3909 14.4937C58.2291 14.3313 58.1439 14.1261 58.1439 13.9037C58.1439 13.6814 58.2291 13.4676 58.3909 13.3052L63.671 8.00368C63.9946 7.67875 64.5311 7.67875 64.8547 8.00368C65.1784 8.32861 65.1784 8.86731 64.8547 9.19224L59.5746 14.4937C59.4128 14.6562 59.2084 14.7417 58.987 14.7417C58.7656 14.7417 58.5527 14.6562 58.3994 14.4937H58.3909Z" fill="white"/>
<path d="M58.9783 14.6046C58.791 14.6046 58.6121 14.5277 58.4759 14.3994C58.3396 14.2626 58.2715 14.0916 58.2715 13.8949C58.2715 13.6983 58.3481 13.5272 58.4759 13.3904L63.756 8.08892C63.8922 7.9521 64.0626 7.8837 64.2585 7.8837C64.4543 7.8837 64.6246 7.96065 64.7609 8.08892C64.8971 8.22573 64.9653 8.39675 64.9653 8.59342C64.9653 8.79008 64.8886 8.9611 64.7609 9.09791L59.4808 14.3994C59.3445 14.5362 59.1742 14.6046 58.9783 14.6046Z" fill="white"/>
<path d="M58.4338 13.9037C58.4338 13.7669 58.4849 13.6215 58.5956 13.5189L63.8758 8.2174C64.0887 8.00363 64.4378 8.00363 64.6507 8.2174C64.8636 8.43117 64.8636 8.78175 64.6507 8.99552L59.3707 14.297C59.1578 14.5108 58.8086 14.5108 58.5956 14.297C58.4849 14.1859 58.4338 14.0491 58.4338 13.9122V13.9037Z" fill="white"/>
<path d="M46.7496 31.0383C46.1853 31.0383 45.7271 31.0261 45.3751 31.0018C45.0232 30.9774 44.7319 30.9469 44.5013 30.9104C44.2707 30.8799 44.0795 30.8525 43.9278 30.8281C43.7822 30.8037 43.6335 30.7915 43.4818 30.7915C43.5485 30.5174 43.5971 30.2675 43.6274 30.0421C43.6578 29.8106 43.6729 29.5973 43.6729 29.4023C43.6729 29.1282 43.6487 28.8753 43.6001 28.6438C43.5516 28.4061 43.4939 28.1563 43.4272 27.8943L43.8368 27.876C44.0067 28.2599 44.2616 28.6133 44.6014 28.9362C44.9412 29.2531 45.3205 29.5303 45.7392 29.7679C46.1579 29.9995 46.5949 30.1822 47.05 30.3163C47.5051 30.4442 47.939 30.5082 48.3517 30.5082C48.8432 30.5082 49.2953 30.4229 49.708 30.2523C50.1206 30.0817 50.4756 29.8563 50.773 29.576C51.0703 29.2896 51.3009 28.9667 51.4648 28.6072C51.6347 28.2416 51.7196 27.8669 51.7196 27.483C51.7196 27.0626 51.6225 26.7214 51.4284 26.4594C51.2402 26.1913 50.9854 25.9781 50.6637 25.8196C50.3482 25.6612 49.9841 25.5424 49.5714 25.4632C49.1648 25.384 48.7461 25.32 48.3153 25.2713C47.9936 25.2347 47.6417 25.1921 47.2594 25.1433C46.8831 25.0946 46.5038 25.0215 46.1215 24.924C45.7392 24.8265 45.3721 24.6985 45.0201 24.5401C44.6682 24.3756 44.3556 24.1684 44.0826 23.9186C43.8095 23.6688 43.591 23.3642 43.4272 23.0047C43.2633 22.6452 43.1814 22.2156 43.1814 21.716C43.1814 21.125 43.2967 20.6101 43.5273 20.1714C43.7579 19.7327 44.0613 19.358 44.4376 19.0473C44.8199 18.7304 45.2568 18.4715 45.7483 18.2704C46.2399 18.0632 46.7435 17.9018 47.2594 17.786C47.7812 17.6641 48.2971 17.5819 48.8068 17.5392C49.3226 17.4905 49.7929 17.4661 50.2177 17.4661C50.5879 17.4661 50.9338 17.4783 51.2554 17.5027C51.5831 17.5271 51.8835 17.5545 52.1566 17.5849C52.4357 17.6093 52.6906 17.6337 52.9212 17.6581C53.1579 17.6763 53.3733 17.6855 53.5675 17.6855C53.5007 17.9718 53.4522 18.2278 53.4218 18.4532C53.3976 18.6725 53.3854 18.8858 53.3854 19.093C53.3854 19.355 53.4067 19.6048 53.4491 19.8424C53.4916 20.0739 53.5493 20.3237 53.6221 20.5918L53.2125 20.6101C53.1154 20.3847 53.0243 20.1623 52.9394 19.9429C52.8544 19.7236 52.7513 19.5195 52.6299 19.3306C52.5146 19.1356 52.369 18.9589 52.193 18.8005C52.0231 18.636 51.8016 18.4958 51.5285 18.3801C51.2615 18.2582 50.9307 18.1668 50.5363 18.1059C50.1479 18.0389 49.6746 18.0054 49.1163 18.0054C48.7401 18.0054 48.3729 18.0724 48.0149 18.2064C47.6629 18.3405 47.3474 18.5263 47.0682 18.7639C46.7951 18.9955 46.5736 19.2758 46.4037 19.6048C46.2338 19.9277 46.1488 20.2811 46.1488 20.665C46.1488 21.0001 46.2095 21.2864 46.3309 21.5241C46.4583 21.7617 46.6222 21.9628 46.8224 22.1273C47.0227 22.2918 47.2472 22.4258 47.496 22.5294C47.7509 22.633 48.0027 22.7153 48.2515 22.7762C48.5064 22.831 48.7461 22.8706 48.9707 22.895C49.2013 22.9194 49.3924 22.9377 49.5441 22.9498C49.8293 22.9742 50.154 23.0108 50.5181 23.0595C50.8822 23.1083 51.2524 23.1844 51.6286 23.288C52.0049 23.3855 52.372 23.5165 52.73 23.681C53.0941 23.8455 53.4158 24.0588 53.6949 24.3208C53.9801 24.5828 54.2077 24.8996 54.3776 25.2713C54.5475 25.6369 54.6325 26.0725 54.6325 26.5782C54.6325 27.2424 54.5172 27.8151 54.2866 28.2965C54.062 28.7717 53.7556 29.1769 53.3672 29.512C52.9788 29.841 52.5237 30.1061 52.0018 30.3072C51.486 30.5021 50.9338 30.6545 50.3451 30.7641C49.7626 30.8738 49.1618 30.9469 48.5428 30.9835C47.9299 31.02 47.3322 31.0383 46.7496 31.0383Z" fill="white"/>
</svg>
